<?xml version="1.0"?>
<svg version="1.1" xmlns="http://www.w3.org/2000/svg" width="100px" height="50px" style=""><path fill="#eb23a8" d="M23.25,21.5l-18.97,0l0,2.135l8.61,0l0,22.435l2.17,0l0-22.435l8.19,0l0-2.135z M37.1044,21.5q-3.955,0-6.79,2.835q-2.87,2.87-2.87,6.825l0,5.285q0,3.885,2.87,6.755t6.79,2.87q3.955,0,6.825-2.87q2.835-2.835,2.835-6.755l0-5.285q0-3.99-2.835-6.825t-6.825-2.835z M44.5944,31.16l0,5.285q0,3.185-2.24,5.355q-2.205,2.1-5.25,2.1t-5.215-2.1q-2.24-2.17-2.24-5.355l0-5.285q0-2.94,2.24-5.25q2.24-2.24,5.215-2.24q2.94,0,5.25,2.24q2.24,2.31,2.24,5.25z M52.0788,46.07l17.115,0l0-1.785l-14.945,0l0-22.785l-2.17,0l0,24.57z M75.3132,39.28q0-1.68,1.19-3.045q1.19-1.435,2.87-1.435l0.455,0l6.545,0l0-2.17l-6.545,0l-0.455,0q-1.785-0.35-2.9225-1.54t-1.1375-2.835q0-2.065,1.2075-3.2725t3.3075-1.2075l11.9,0l0-2.205l-11.9,0q-2.695,0-4.69,1.995q-1.995,1.925-1.995,4.69q0,1.75,0.665,3.185t1.96,2.065q-1.295,0.945-1.96,2.485t-0.665,3.29q0,2.73,1.995,4.655q2.03,2.03,4.69,2.03l11.9,0l0-2.31l-11.9,0q-2.1,0-3.3075-1.19t-1.2075-3.185z"/><path fill="#" d=""/></svg>
