<?xml version="1.0" encoding="utf-8"?>
<!-- Generator: Adobe Illustrator 27.5.0, SVG Export Plug-In . SVG Version: 6.00 Build 0)  -->
<svg version="1.1" xmlns="http://www.w3.org/2000/svg" xmlns:xlink="http://www.w3.org/1999/xlink" x="0px" y="0px"
	 viewBox="0 0 500 500" style="enable-background:new 0 0 500 500;" xml:space="preserve">
<g id="Background">
	<rect style="fill:#FFFFFF;" width="500" height="500"/>
</g>
<g id="Objects">
	<g>
		<g>
			<g>
				<path style="fill:#75D1EA;" d="M330,54.667C294.331,42.26,267,41,237.667,65c-29.334,24-42,22.667-80.667,29.334
					c-38.667,6.666-58,40-52,80.666c6,40.667-30.667,54.667-42.667,109.335c-12,54.666,18,109.332,18,109.332h343.334
					c0,0,14.385-25.731,21.333-68.666c6.948-42.935-17.333-85.333-43.667-121.666C375,167,390,155,387,120S345.333,60,330,54.667"/>
				<g>
					<path style="fill:#6AB0D3;" d="M436.727,264.388c-0.088-0.056-0.166-0.134-0.209-0.255c-10.541-29.678-60.173-21.541-68.035,6
						c-0.084,0.294-0.463,0.484-0.734,0.299c-3.84-2.624-8.619-4.694-13.291-3.094c-4.114,1.411-7.213,4.77-9.545,8.325
						c-4.892,7.456-7.635,16.074-10.43,24.47c-0.129,0.388-0.702,0.525-0.914,0.119c-8.314-15.906-30.136,5.678-33.086,15.881
						c-0.115,0.397-0.71,0.517-0.914,0.119c-6.276-12.208-23.391-14.467-35.561-12.395C251.194,306.039,237.611,314.2,239.5,329
						c0.056,0.439-0.581,0.654-0.854,0.354c-6.809-7.522-15.065-15.887-25.456-17.886c-11.503-2.214-22.113,4.049-30.837,10.886
						c-0.328,0.257-0.851,0.121-0.854-0.354c-0.05-8.241-1.828-17.619-7.265-24.117c-6.381-7.626-15.512-7.577-23.982-3.451
						c-0.323,0.157-0.767-0.027-0.752-0.432c0.271-7.426-2.407-15.691-10.608-17.318c-7.643-1.516-15.214,2.45-20.539,7.672
						c-0.326,0.32-0.825,0.073-0.854-0.354c-0.028-0.454-0.06-0.907-0.097-1.36c-0.712-8.184-2.977-17.923-10.357-22.729
						c-5.772-3.758-12.943-3.564-19.301-1.497c-8.551,2.781-16.474,8.298-22.632,15.295c-1.026,3.369-1.961,6.899-2.779,10.625
						c-12,54.666,18,109.332,18,109.332h343.334c0,0,14.385-25.731,21.333-68.666C448.322,304.472,444.494,284.067,436.727,264.388z
						"/>
					<g>
						<path style="fill:#4A88C6;" d="M482.75,370c0-7.38-5.61-13.449-12.799-14.177c1.303-2.49,2.049-5.318,2.049-8.323
							c0-9.941-8.059-18-18-18c-1.784,0-3.504,0.269-5.131,0.752c-2.24-9.041-10.386-15.752-20.119-15.752
							c-3.639,0-7.055,0.942-10.027,2.588C417.352,309.644,410.841,304,403,304c-6.965,0-12.874,4.459-15.071,10.671
							c-3.104-8.959-9.851-15.171-17.679-15.171c-10.678,0-19.347,11.556-19.493,25.883c-8.587,1.061-15.257,8.874-15.257,18.367
							c0,2.506,0.47,4.893,1.311,7.071c-6.597,2.423-11.311,8.742-11.311,16.179c0,9.527,7.723,17.25,17.25,17.25h128
							c0,0,0.001-0.07,0.003-0.195C477.55,382.973,482.75,377.102,482.75,370"/>
						<path style="fill:#4A88C6;" d="M219.171,363.821c-4.569-4.569-11.796-4.859-16.705-0.873c-1.159-2.23-3.207-3.919-5.675-4.605
							c0.342-1.281,0.543-2.62,0.543-4.01c0-8.561-6.94-15.5-15.5-15.5c-4.08,0-7.78,1.589-10.548,4.165
							c-1.58-2.5-4.36-4.165-7.536-4.165c-0.648,0-1.279,0.073-1.888,0.205c-1.57-6.158-7.024-10.747-13.607-11.009
							c0.049-0.613,0.079-1.233,0.079-1.862c0-10.586-7.164-19.167-16-19.167c-8.262,0-15.058,7.501-15.908,17.128
							c-2.026-1.424-4.679-2.295-7.592-2.295c-1.028,0-2.019,0.118-2.967,0.319c-1.035-10.313-8.559-18.319-17.7-18.319
							c-9.538,0-17.305,8.72-17.787,19.678c-2.417-1.984-5.509-3.178-8.88-3.178c-7.732,0-14,6.269-14,14
							c0,1.559,0.266,3.053,0.735,4.453c-1.772-0.716-3.706-1.119-5.735-1.119c-8.468,0-15.333,6.864-15.333,15.333
							c0,1.49,0.223,2.927,0.62,4.29c-0.262-0.016-0.521-0.04-0.787-0.04c-7.456,0-13.5,6.044-13.5,13.5
							c0,7.456,6.044,13.5,13.5,13.5h178.655c4.508,1.817,9.862,0.9,13.516-2.754C224.051,376.615,224.051,368.702,219.171,363.821"
							/>
					</g>
				</g>
			</g>
			<g>
				<path style="fill:#75D1EA;" d="M189.5,63.25c0-5.661,4.589-10.25,10.25-10.25S210,57.589,210,63.25
					c0,5.661-4.589,10.25-10.25,10.25S189.5,68.911,189.5,63.25"/>
				<path style="fill:#75D1EA;" d="M150.25,48.5c0-4.28,3.47-7.75,7.75-7.75s7.75,3.47,7.75,7.75c0,4.28-3.47,7.75-7.75,7.75
					S150.25,52.78,150.25,48.5"/>
				<path style="fill:#75D1EA;" d="M141,82.5c0-2.485,2.015-4.5,4.5-4.5c2.485,0,4.5,2.015,4.5,4.5c0,2.485-2.015,4.5-4.5,4.5
					C143.015,87,141,84.985,141,82.5"/>
				<path style="fill:#75D1EA;" d="M49.75,157.25c0-2.485,2.015-4.5,4.5-4.5s4.5,2.015,4.5,4.5c0,2.485-2.015,4.5-4.5,4.5
					S49.75,159.735,49.75,157.25"/>
				<path style="fill:#75D1EA;" d="M63.5,197.25c0-7.042,5.708-12.75,12.75-12.75S89,190.208,89,197.25S83.292,210,76.25,210
					S63.5,204.292,63.5,197.25"/>
				<path style="fill:#75D1EA;" d="M41.5,234c0-4.004,3.246-7.25,7.25-7.25S56,229.996,56,234c0,4.004-3.246,7.25-7.25,7.25
					S41.5,238.004,41.5,234"/>
				<path style="fill:#75D1EA;" d="M405.5,178c0-7.18,5.82-13,13-13c7.18,0,13,5.82,13,13c0,7.18-5.82,13-13,13
					C411.32,191,405.5,185.18,405.5,178"/>
				<path style="fill:#75D1EA;" d="M442,149.25c0-3.728,3.021-6.75,6.75-6.75c3.727,0,6.75,3.022,6.75,6.75s-3.023,6.75-6.75,6.75
					C445.021,156,442,152.978,442,149.25"/>
				<path style="fill:#75D1EA;" d="M402,109.25c0-2.485,2.015-4.5,4.5-4.5c2.485,0,4.5,2.015,4.5,4.5c0,2.485-2.015,4.5-4.5,4.5
					C404.015,113.75,402,111.735,402,109.25"/>
				<path style="fill:#75D1EA;" d="M430.25,216.75c0-3.038,2.463-5.5,5.5-5.5c3.037,0,5.5,2.462,5.5,5.5c0,3.038-2.463,5.5-5.5,5.5
					C432.713,222.25,430.25,219.788,430.25,216.75"/>
			</g>
		</g>
		<g>
			<defs>
				<rect id="SVGID_1_" width="500" height="500"/>
			</defs>
			<clipPath id="SVGID_00000174564384886055963690000006547170760350766478_">
				<use xlink:href="#SVGID_1_"  style="overflow:visible;"/>
			</clipPath>
			<g style="clip-path:url(#SVGID_00000174564384886055963690000006547170760350766478_);">
				<g>
					<rect x="-15" y="374" style="fill:#B2CDF9;" width="530" height="153"/>
					<path style="fill:#789FD6;" d="M406.001,383.741c0-3.738,13.133-6.77,29.334-6.77c16.2,0,29.333,3.031,29.333,6.77
						c0,3.739-13.133,6.77-29.333,6.77C419.134,390.511,406.001,387.48,406.001,383.741z"/>
					<path style="fill:#789FD6;" d="M26.667,383.741c0-3.738,15.073-6.77,33.667-6.77c18.593,0,33.666,3.031,33.666,6.77
						c0,3.739-15.073,6.77-33.666,6.77C41.739,390.511,26.667,387.48,26.667,383.741z"/>
				</g>
				<g>
					<polygon style="fill:#1F848C;" points="429,444 71,444 101,374 399,374 					"/>
					<g>
						<ellipse style="fill:#19707C;" cx="248.643" cy="412.658" rx="133.478" ry="22.842"/>
						<path style="fill:#19707C;" d="M404.76,423.306c0,4.36-16.229,7.896-36.251,7.896c-20.021,0-36.251-3.536-36.251-7.896
							c0-4.361,16.23-7.897,36.251-7.897C388.53,415.408,404.76,418.944,404.76,423.306z"/>
					</g>
				</g>
			</g>
		</g>
		<g>
			<path style="fill:#313A4C;" d="M249.375,349.75c0,0,35.125,0.375,43.875-1.5S316,337.125,335.125,337s25.75,21.875,14.75,34
				S273.5,404.5,251,405.25s-79.25-18-99-34.25s-9.25-37.25,10.75-34.75s36.04,9.25,46.145,12
				C219,351,249.375,349.75,249.375,349.75"/>
			<path style="fill:#F4CFA2;" d="M339.625,320.375c-1.375-9-21.125-39.875-21.125-39.875l-20.5,7.75l10.875,18.875l2.399,11.93
				c1.857,9.236,11.09,15.325,20.18,12.849C337.571,330.237,340.427,325.625,339.625,320.375"/>
			<path style="fill:#DBA182;" d="M326.194,293.047c-4.171-7.037-7.694-12.547-7.694-12.547l-20.5,7.75l7.978,13.849
				C313.249,300.695,320.201,297.461,326.194,293.047z"/>
			<path style="fill:#F4CFA2;" d="M162.52,320.375c1.375-9,21.125-39.875,21.125-39.875l20.5,7.75l-10.875,18.875l-2.399,11.93
				c-1.857,9.236-11.09,15.325-20.18,12.849C164.574,330.237,161.718,325.625,162.52,320.375"/>
			<path style="fill:#DBA182;" d="M188.627,297.38c3.095,1.001,6.209,1.503,9.332,1.606l6.186-10.736l-20.5-7.75
				c0,0-2.76,4.315-6.289,10.189C180.102,294.041,184.755,296.127,188.627,297.38z"/>
			<path style="fill:#1F848C;" d="M292.5,239.5c-4.669-3.557-26.922-6.124-39.355-6.649v-0.101c-0.634,0-1.33,0.01-2.072,0.029
				c-0.742-0.019-1.439-0.029-2.072-0.029v0.101c-12.433,0.525-34.687,3.092-39.355,6.649c-5.25,4-28.666,43.5-28.666,44.333
				c0,0.834,18.5,12.667,19.25,12.084c0.75-0.584,11.25-18.584,11.25-18.584h37.688h3.811h37.688c0,0,10.5,18,11.25,18.584
				c0.75,0.583,19.25-11.25,19.25-12.084C321.167,283,297.75,243.5,292.5,239.5"/>
			<path style="fill:#1F848C;" d="M292.75,254.25l-41.678,0.744l-41.677-0.744c0,0-0.5,92.25-0.5,94s13.605,11.682,42.177,11.682
				c29.261,0,42.178-9.932,42.178-11.682S292.75,254.25,292.75,254.25"/>
			<path style="fill:#FFFFFF;" d="M321.167,283.833c0-0.181-1.107-2.189-2.891-5.258c-6.13,4.051-16.258,9.814-19.863,11.845
				c1.783,2.953,3.241,5.293,3.504,5.497C302.667,296.5,321.167,284.667,321.167,283.833"/>
			<path style="fill:#F4CFA2;" d="M339.625,320.375c-0.002-0.012-0.004-0.023-0.006-0.036c-0.423-2.691-2.446-4.858-5.059-5.63
				l-25.685-7.584c0,0-37.375-10.25-38.875-11.625s-10.5-26.625-11.25-30.5s-6-7-6.625-1.5s-0.875,27.125,0.375,39.875
				s12.375,8.125,14.25,8.75s28.625,11.625,46.75,18S341,329.375,339.625,320.375"/>
			<path style="fill:#FFFFFF;" d="M180.979,283.833c0-0.181,1.106-2.189,2.89-5.258c6.129,4.051,16.258,9.814,19.863,11.845
				c-1.783,2.953-3.241,5.293-3.503,5.497C199.479,296.5,180.979,284.667,180.979,283.833"/>
			<path style="fill:#F4CFA2;" d="M162.52,320.375c0.002-0.012,0.003-0.023,0.005-0.036c0.424-2.691,2.448-4.858,5.061-5.63
				l25.684-7.584c0,0,37.375-10.25,38.875-11.625s10.5-26.625,11.25-30.5s6-7,6.624-1.5c0.625,5.5,0.875,27.125-0.374,39.875
				c-1.25,12.75-12.375,8.125-14.25,8.75s-28.625,11.625-46.75,18S161.145,329.375,162.52,320.375"/>
			<path style="fill:#FFFFFF;" d="M253.145,232.75c-0.634,0-1.33,0.01-2.072,0.029c-0.742-0.019-1.439-0.029-2.073-0.029
				l0.001,0.101c-4.45,0.188-10.157,0.639-15.866,1.301c-0.083,0.607-0.135,1.221-0.135,1.846c0,8.976,8.731,16.252,19.499,16.252
				c10.771,0,19.5-7.276,19.5-16.252c0-0.503-0.036-0.998-0.089-1.49c-6.637-0.858-13.561-1.437-18.766-1.657V232.75z"/>
			<path style="fill:#F4CFA2;" d="M253.145,232.75c-0.634,0-1.33,0.01-2.072,0.029c-0.742-0.019-1.439-0.029-2.073-0.029
				l0.001,0.101c-3.168,0.134-6.978,0.403-10.968,0.785c-0.093,0.529-0.158,1.065-0.158,1.614c0,6.422,6.548,11.628,14.624,11.628
				c8.078,0,14.625-5.206,14.625-11.628c0-0.447-0.038-0.886-0.1-1.319c-5.031-0.542-9.946-0.914-13.88-1.08V232.75z"/>
			<polyline style="fill:#F4CFA2;" points="242.5,235 242.5,223.5 260.75,223.5 260.75,234.75 			"/>
			<path style="fill:#DBA182;" d="M260.75,231.373V223.5H242.5v8C247.633,234.695,255.879,234.916,260.75,231.373z"/>
			<path style="fill:#313A4C;" d="M269.596,198.834h-36.108c-8.536,0-15.387,2.332-15.148-4.531c0,0-3.16-30.01-0.877-38.271
				c2.8-10.136,15.621-20.656,34.079-20.656c18.457,0,31.278,10.52,34.079,20.656c2.282,8.261-0.877,38.271-0.877,38.271
				C284.982,201.166,278.131,198.834,269.596,198.834"/>
			<path style="fill:#DBA182;" d="M225.33,185.625c0,0-2.375-5.75-8.375-3.375s-4.75,23.875,8.25,19.125L225.33,185.625z"/>
			<path style="fill:#F4CFA2;" d="M235.411,158.875h32.262c6.864,0,12.377,5.667,12.185,12.531l-0.904,34.271
				c-0.414,14.841-12.564,24.656-27.411,24.656c-14.847,0-26.998-9.815-27.414-24.656l-0.903-34.271
				C223.034,164.542,228.544,158.875,235.411,158.875"/>
			<path style="fill:#DBA182;" d="M277.5,185.625c0,0,2.375-5.75,8.375-3.375s4.75,23.875-8.25,19.125L277.5,185.625z"/>
			<path style="fill:#F4CFA2;" d="M235.411,158.875h32.262c6.864,0,12.377,5.667,12.185,12.531l-0.904,34.271
				c-0.414,14.841-12.564,24.656-27.411,24.656c-14.847,0-26.998-9.815-27.414-24.656l-0.903-34.271
				C223.034,164.542,228.544,158.875,235.411,158.875"/>
			<path style="fill:#DBA182;" d="M240.596,168.697c3.921,0.581,7.894,0.506,11.845,0.748c3.635,0.223,7.412,0.528,11.023-0.103
				c5.099-0.891,9.565-3.846,14.659-4.53c-2.127-3.547-5.999-5.938-10.45-5.938h-32.262c-5.405,0-9.957,3.518-11.562,8.361
				C229.065,166.023,236.65,168.112,240.596,168.697z"/>
			<path style="fill:#313A4C;" d="M223.916,154.875c0-5.73,12.368-10.375,27.625-10.375c15.258,0,27.625,4.645,27.625,10.375
				s-12.367,10.375-27.625,10.375C236.285,165.25,223.916,160.605,223.916,154.875"/>
			<g>
				<path style="fill:#44261D;" d="M221.688,186.972c-0.328-0.576-0.757-1.088-1.277-1.448c-0.513-0.36-1.136-0.554-1.7-0.474
					c-0.571,0.071-0.985,0.42-1.203,0.734c-0.431,0.657-0.39,1.126-0.344,1.133c0.091,0.035,0.223-0.403,0.669-0.854
					c0.223-0.215,0.545-0.403,0.931-0.401c0.383-0.003,0.81,0.172,1.181,0.485c0.374,0.312,0.692,0.751,0.934,1.246
					c0.235,0.502,0.383,1.061,0.499,1.644c0.11,0.567,0.149,1.143-0.012,1.501c-0.128,0.351-0.582,0.656-1.017,1.06
					c-0.416,0.407-0.799,0.801-0.98,1.408c-0.165,0.599,0.048,1.142,0.262,1.452c0.453,0.64,0.881,0.862,1.165,1.017
					c0.588,0.275,0.719,0.155,0.784,0.025c0.072-0.14,0.07-0.268-0.336-0.661c-0.189-0.198-0.508-0.483-0.744-0.903
					c-0.237-0.44-0.198-0.778,0.597-1.532c0.202-0.18,0.411-0.366,0.626-0.558c0.232-0.217,0.495-0.522,0.64-0.899
					c0.287-0.77,0.144-1.487,0.007-2.12C222.215,188.2,222.008,187.555,221.688,186.972"/>
				<path style="fill:#44261D;" d="M285.322,185.783c-0.218-0.313-0.633-0.663-1.203-0.734c-0.564-0.079-1.188,0.115-1.7,0.475
					c-0.52,0.359-0.948,0.872-1.276,1.447c-0.322,0.583-0.528,1.228-0.683,1.855c-0.137,0.633-0.28,1.351,0.007,2.121
					c0.146,0.377,0.408,0.681,0.641,0.898c0.215,0.192,0.424,0.378,0.625,0.559c0.796,0.753,0.835,1.092,0.599,1.532
					c-0.237,0.42-0.556,0.704-0.745,0.902c-0.405,0.393-0.408,0.521-0.336,0.662c0.064,0.129,0.195,0.25,0.784-0.026
					c0.284-0.155,0.713-0.377,1.165-1.016c0.213-0.31,0.427-0.854,0.262-1.453c-0.181-0.607-0.563-1.001-0.98-1.407
					c-0.435-0.405-0.89-0.709-1.017-1.06c-0.16-0.358-0.12-0.934-0.013-1.501c0.117-0.583,0.266-1.143,0.5-1.644
					c0.241-0.496,0.559-0.935,0.934-1.246c0.371-0.314,0.799-0.489,1.182-0.485c0.386-0.003,0.708,0.185,0.932,0.401
					c0.445,0.451,0.577,0.888,0.669,0.852C285.712,186.909,285.754,186.44,285.322,185.783"/>
				<path style="fill:#44261D;" d="M263.596,177.783c-3.015,0-3.179,0.246-3.179,0.55c0,0.304,0.164,0.55,3.179,0.55
					c3.014,0,7.737-0.246,7.737-0.55C271.333,178.029,266.609,177.783,263.596,177.783"/>
				<path style="fill:#44261D;" d="M268.972,189.711c-1.493,1.34-4.309,1.372-5.898,0.51c-0.792-0.445-1.243-0.997-1.549-1.439
					c-0.302-0.449-0.464-0.799-0.593-1.035c-0.239-0.482-0.358-0.516-0.515-0.497c-0.145,0.015-0.3,0.105-0.229,0.724
					c0.047,0.305,0.153,0.75,0.47,1.333c0.317,0.57,0.874,1.313,1.892,1.881c1.029,0.55,2.338,0.748,3.6,0.615
					c1.281-0.102,2.525-0.703,3.339-1.509c0.83-0.797,1.259-1.712,1.482-2.361c0.215-0.661,0.228-1.085,0.155-1.1
					C270.974,186.763,270.533,188.428,268.972,189.711"/>
				<path style="fill:#44261D;" d="M243.125,178.334c0-0.304-0.172-0.55-3.336-0.55c-3.164,0-8.122,0.246-8.122,0.55
					s4.958,0.55,8.122,0.55C242.953,178.883,243.125,178.638,243.125,178.334"/>
				<path style="fill:#44261D;" d="M243.125,187.25c-0.157-0.019-0.275,0.016-0.515,0.497c-0.129,0.236-0.291,0.586-0.593,1.035
					c-0.305,0.442-0.756,0.995-1.549,1.44c-1.59,0.861-4.405,0.83-5.898-0.511c-1.561-1.282-2.002-2.947-2.153-2.878
					c-0.074,0.015-0.06,0.439,0.155,1.101c0.223,0.649,0.653,1.563,1.483,2.36c0.812,0.806,2.057,1.407,3.338,1.51
					c1.262,0.133,2.57-0.066,3.6-0.616c1.018-0.567,1.574-1.311,1.891-1.88c0.317-0.583,0.423-1.028,0.47-1.334
					C243.426,187.355,243.269,187.265,243.125,187.25"/>
				<path style="fill:#44261D;" d="M246.645,203.064c0.183,0.139,0.361,0.271,0.537,0.389c0.702,0.478,1.351,0.851,1.905,1.153
					c1.11,0.6,1.842,0.888,1.913,0.77c0.073-0.121-0.526-0.623-1.528-1.37c-0.506-0.378-1.093-0.817-1.742-1.303
					c-0.153-0.124-0.312-0.252-0.472-0.382l-0.21-0.194c-0.021-0.025-0.002-0.006-0.007-0.017c0.004-0.008-0.003,0.012,0.016-0.025
					c0.032-0.078,0.084-0.172,0.139-0.27c0.1-0.189,0.224-0.387,0.343-0.586c2.018-3.188,3.706-5.811,3.461-5.978
					c-0.213-0.149-2.252,2.185-4.324,5.455c-0.125,0.211-0.25,0.414-0.365,0.637c-0.058,0.106-0.116,0.215-0.17,0.349
					c-0.105,0.17-0.094,0.41-0.12,0.611c0.078,0.185,0.19,0.395,0.343,0.52C246.461,202.917,246.551,202.983,246.645,203.064"/>
				<path style="fill:#44261D;" d="M257.498,213.315c-0.246,0.295-0.617,0.683-1.2,0.917c-1.187,0.461-3.185,0.369-5.339,0.388
					c-1.094,0.004-2.094,0.016-3.002-0.062c-0.904-0.076-1.699-0.241-2.325-0.467c-0.627-0.227-1.063-0.531-1.328-0.783
					c-0.265-0.255-0.359-0.446-0.429-0.433c-0.067,0.004-0.1,0.277,0.114,0.666c0.209,0.385,0.674,0.853,1.353,1.201
					c0.677,0.348,1.543,0.603,2.507,0.739c0.964,0.136,2.037,0.15,3.113,0.147c2.158-0.033,4.205-0.002,5.648-0.755
					c0.707-0.398,1.067-0.974,1.223-1.352c0.164-0.387,0.183-0.62,0.126-0.646C257.89,212.841,257.747,213.023,257.498,213.315"/>
			</g>
			<path style="fill:#DBA182;" d="M252.073,395.585c0,0-6.304,3.817-8.417,4.029c-2.115,0.213-27.73,1.98-38.24,4.136
				c-10.509,2.155-11.363,9.279-5.833,19.417c4.5,8.25,18.121,5.961,33.333,1.083c15.213-4.878,23.737-9.546,23.737-9.546
				L252.073,395.585z"/>
			<path style="fill:#354156;" d="M330.125,345.5c0,0-77.5,44.375-88.625,50.375c-1.25,1.125,8.875,19.625,11.625,18.625
				s85.625-29.125,97.5-44.125s-0.094-28.313-4.625-30.469C342.788,338.378,340.625,340.375,330.125,345.5"/>
			<path style="fill:#F4CFA2;" d="M250.25,394c0,0,6,3.417,8.083,3.833c2.084,0.417,29.5,4.334,39.75,7.5
				c10.25,3.167,7.084,14.334-0.25,21.834c-7.333,7.5-15.583,4.333-30.25-2c-14.666-6.334-23.75-12.584-23.75-12.584L250.25,394z"/>
			<path style="fill:#DBA182;" d="M264.834,398.87c-3.474-0.548-5.933-0.924-6.501-1.037c-2.083-0.416-8.083-3.833-8.083-3.833
				l-6.417,18.583c0,0,3.183,2.184,8.789,5.27C258.585,413.01,263.063,406.306,264.834,398.87z"/>
			<path style="fill:#354156;" d="M176.75,348c16.66,9.615,79.125,45.625,80.625,47.25S251,414.5,247.25,415.75
				s-64.5-24.375-88-39.25s-18.625-27.25-15.125-33S158.125,337.25,176.75,348"/>
		</g>
		<g>
			<path style="fill:#D3D3D3;" d="M354,421.344c0-3.425,9.494-6.265,21.247-6.265c11.754,0,21.315,2.84,21.315,6.265
				c0,3.425-9.528,6.202-21.281,6.202C363.528,427.546,354,424.769,354,421.344"/>
			<path style="fill:#727275;" d="M359.438,421.414c0-1.935,6.999-3.477,15.663-3.477c8.663,0,15.712,1.542,15.712,3.477
				c0,1.935-7.023,3.503-15.688,3.503C366.461,424.917,359.438,423.349,359.438,421.414"/>
			<path style="fill:#D3D3D3;" d="M393.276,397.927c-1.73-1.073-4.139-0.949-6.443,0.334c-2.27,1.263-4.561,3.819-4.583,6.694
				c-0.024,0.441-0.253,4.579-0.332,6.396c-0.073,1.686,1.857,2.956,4.695,3.085c0.144,0.007,0.288,0.01,0.434,0.01
				c3.977,0,8.531-2.492,8.868-9.626C396.115,400.6,394.591,398.743,393.276,397.927 M392.919,404.68
				c-0.154,3.267-1.405,5.461-3.618,6.345c-1.819,0.727-3.701,0.353-4.365,0.014c0.097-2.082,0.313-5.954,0.313-5.955L385.25,405
				c0-1.405,1.279-3.137,3.042-4.118c1.319-0.735,2.624-0.889,3.403-0.405C392.586,401.029,393.02,402.522,392.919,404.68"/>
			<path style="fill:#FFFFFF;" d="M361.939,388.583l-0.224,3.645c-0.352,5.144-0.097,10.31,0.759,15.395l1.915,11.382
				c0.46,2.738,2.862,4.245,5.677,4.245h10.117c2.814,0,5.217-1.507,5.677-4.245l1.915-11.382c0.855-5.086,1.11-10.252,0.759-15.395
				l-0.224-3.645c-0.14-2.049-11.867-1.306-13.95-1.306h1.529C373.807,387.277,362.079,386.534,361.939,388.583"/>
			<path style="fill:#D3D3D3;" d="M375.125,395.469c5.55,0,10.45-0.831,13.471-2.104c-0.02-0.379-0.035-0.758-0.062-1.136
				l-0.224-3.646c-0.127-1.868-9.885-1.415-13.185-1.32c-3.301-0.095-13.059-0.548-13.186,1.32l-0.224,3.646
				c-0.026,0.378-0.042,0.757-0.061,1.136C364.675,394.638,369.575,395.469,375.125,395.469"/>
			<path style="fill:#A2A2A3;" d="M361.938,388.522c0-1.098,5.884-2.115,13.167-2.115s13.208,1.018,13.208,2.115
				c0,1.099-5.904,1.989-13.188,1.989S361.938,389.62,361.938,388.522"/>
			<path style="fill:#727275;" d="M375.104,388.001c-6.191,0-11.357,0.45-12.77,0.997c1.417,0.868,6.598,1.513,12.791,1.513
				c6.191,0,11.372-0.645,12.79-1.513C386.494,388.451,381.298,388.001,375.104,388.001z"/>
			<path style="fill:#FFFFFF;" d="M374.875,362.938c-0.073,0.026,0.018,0.517,0.193,1.303c0.131,0.789,0.34,1.908,0.157,3.112
				c-0.139,1.221-0.905,2.366-1.679,3.619c-0.382,0.634-0.718,1.317-0.977,2.01c-0.231,0.702-0.39,1.401-0.461,2.062
				c-0.258,2.668,0.512,4.052,0.896,4.648c0.438,0.611,0.637,0.566,0.744,0.475c0.125-0.101,0.165-0.209-0.051-0.827
				c-0.169-0.616-0.724-1.803-0.496-4.177c0.064-0.59,0.197-1.207,0.387-1.831c0.217-0.616,0.496-1.237,0.836-1.855
				c0.685-1.209,1.521-2.616,1.572-4.033c0.099-1.391-0.257-2.536-0.517-3.318C375.172,363.354,374.944,362.912,374.875,362.938"/>
			<path style="fill:#FFFFFF;" d="M381.813,367.693c-0.135-0.738-0.259-1.17-0.332-1.16c-0.211,0.003,0.119,1.843-0.463,3.993
				c-0.276,1.08-1.033,2.046-1.824,3.117c-0.392,0.54-0.748,1.128-1.041,1.725c-0.274,0.605-0.49,1.212-0.635,1.788
				c-0.566,2.331-0.193,3.661,0.035,4.273c0.265,0.626,0.457,0.628,0.586,0.565c0.145-0.067,0.22-0.156,0.17-0.748
				c-0.016-0.584-0.232-1.722,0.275-3.819c0.255-1.051,0.733-2.158,1.444-3.209c0.704-1.04,1.537-2.252,1.743-3.499
				C382.022,369.497,381.91,368.432,381.813,367.693"/>
		</g>
		<g>
			<path style="fill:#1B7577;" d="M466.667,284.25c2.083-1.917,2.083-10.667,1.25-10.667c-0.834,0-5.917,0.667-5.834-0.166
				c0.084-0.834,4.917-2.167,5.25-4.834c0.334-2.666,0.167-8.75,0.167-8.75s-6.976,1.085-16.442,6.545
				c-0.636,0.366-1.001,1.066-0.944,1.795c0.153,1.954,0.278,5.715-0.946,6.327c-1.336,0.668-2.137-2.411-2.401-3.66
				c-0.051-0.238-0.324-0.349-0.523-0.209c-1.527,1.082-6.659,4.78-6.659,5.702c0,1.084,2.834,11.25,1.25,12.167
				c-1.583,0.917-3.583-7.333-4.333-7s-5.917,2.5-8.917,8s-2.333,14.667,9.25,16.333c0,0,1.334,8.5,11.417,7.084
				c10.083-1.417,13.25-13.417,12.417-13.5c-0.834-0.084-12,0.25-11.584-1.667c0.417-1.917,11.75-1,12.75-1.667
				c1-0.666,3.834-7.25,2.584-6.916c-1.25,0.333-8.667,0.666-8.667-0.5C455.75,287.5,464.583,286.167,466.667,284.25
				 M457.358,266.165c0.332-0.792,1.165-1.432,1.57-1.262c0.404,0.17,0.228,1.084-0.104,1.876c-0.332,0.792-0.929,1.297-1.334,1.127
				C457.085,267.736,457.026,266.957,457.358,266.165 M432.797,299.99c-0.547,0.099-1.204-1.015-1.469-2.486
				c-0.264-1.472,0.103-3.151,0.649-3.249c0.547-0.099,1.065,1.422,1.329,2.893C433.57,298.62,433.342,299.893,432.797,299.99
				 M444.864,306.747c-1.657-0.12-2.969-0.65-2.93-1.185c0.038-0.533,1.413-0.868,3.071-0.748c1.656,0.121,3.398,0.48,3.36,1.014
				C448.327,306.361,446.521,306.867,444.864,306.747 M452.193,287.652c-1.376,0.368-2.603,0.248-2.741-0.27
				c-0.139-0.516,0.865-1.233,2.24-1.602c1.376-0.368,2.897-0.534,3.035-0.018S453.569,287.284,452.193,287.652"/>
			<path style="fill:#313A4C;" d="M464.295,263.917c-0.231,0.179-0.575,0.445-0.988,0.821c-0.849,0.732-2.02,1.862-3.436,3.316
				c-1.734,1.79-3.814,4.103-6.036,6.834c-0.001-0.27-0.006-0.575-0.015-0.968c-0.008-1.085,0.056-2.478,0.194-3.6
				c0.125-1.122,0.29-1.974,0.174-2.008c-0.102-0.033-0.469,0.771-0.748,1.904c-0.292,1.128-0.453,2.576-0.444,3.706
				c0.021,0.91,0.085,1.461,0.168,1.803c-1.188,1.485-2.405,3.072-3.632,4.771c-1.64,2.303-3.292,4.796-4.875,7.418
				c-0.007-0.251-0.015-0.529-0.027-0.845c-0.048-1.37-0.109-3.128-0.13-4.548c-0.029-1.419-0.031-2.504-0.186-2.523
				c-0.147-0.019-0.419,1.048-0.59,2.484c-0.18,1.435-0.242,3.228-0.193,4.623c0.049,1.185,0.135,1.887,0.238,2.304
				c-1.697,2.925-3.287,6.003-4.643,9.187c-0.143,0.327-0.271,0.658-0.408,0.987c-0.042-0.326-0.099-0.682-0.182-1.081
				c-0.371-1.816-1.217-4.015-2.053-5.693c-0.829-1.685-1.609-2.872-1.732-2.811c-0.148,0.074,0.384,1.383,1.017,3.116
				c0.643,1.729,1.343,3.9,1.692,5.613c0.322,1.564,0.371,2.442,0.42,2.936c-2.171,5.675-3.604,11.467-4.587,16.669
				c-1.157,6.154-1.553,10.93-1.768,14.567c-0.198,3.642-0.177,6.162-0.112,7.895c0.142,3.467,0.37,3.799,0.505,3.787
				c0.168-0.012,0.215-0.353,0.272-3.793c0.036-1.72,0.095-4.217,0.348-7.825c0.267-3.604,0.69-8.333,1.836-14.429
				c0.952-5.038,2.315-10.642,4.342-16.137c0.405,0.168,1.379,0.308,3.701,0.338c1.902,0.014,4.349-0.142,6.298-0.448
				c1.953-0.301,3.383-0.773,3.349-0.914c-0.037-0.155-1.497,0.042-3.431,0.141c-1.934,0.105-4.337,0.135-6.212,0.121
				c-1.967-0.024-2.955,0.005-3.458,0.085c0.347-0.913,0.709-1.823,1.096-2.726c0.891-2.139,1.893-4.229,2.955-6.267
				c0.417,0.148,1.352,0.256,3.436,0.226c1.793-0.039,4.092-0.253,5.915-0.601c1.826-0.335,3.168-0.775,3.136-0.916
				c-0.034-0.156-1.416,0.012-3.235,0.145c-1.819,0.146-4.08,0.233-5.842,0.272c-1.596,0.022-2.505,0.064-3.027,0.134
				c1.638-3.073,3.42-6.003,5.218-8.732c0.543,0.078,1.565,0.113,3.461-0.1c1.919-0.215,4.357-0.719,6.247-1.367
				c1.897-0.63,3.234-1.35,3.179-1.477c-0.063-0.151-1.483,0.304-3.388,0.727c-1.9,0.445-4.292,0.815-6.164,1.024
				c-1.294,0.146-2.159,0.229-2.745,0.308c0.32-0.479,0.643-0.96,0.964-1.426c1.168-1.673,2.327-3.24,3.458-4.714
				c0.065-0.022,0.114-0.07,0.147-0.193c2.371-3.078,4.596-5.694,6.41-7.693c1.362-1.491,2.48-2.666,3.274-3.446
				c0.784-0.791,1.24-1.197,1.21-1.233C464.654,263.652,464.527,263.738,464.295,263.917"/>
			<path style="fill:#269B92;" d="M437,288.667c-0.833-11.75-10.083-16.584-10.417-15.834c-0.333,0.75-3.083,8.5-4.75,7.25
				c-1.666-1.25,1.834-11.666,1.834-13.416s-7.334-8.584-7.584-7.5c-0.25,1.083-2.583,7-3.416,4c-0.834-3,1.083-8-0.584-9
				c-1.666-1-15.416-7.5-19.416-9.167c0,0,0.333,5.5-0.584,8.333c-0.916,2.834-0.083,3.417,2.667,5c2.75,1.584,4.25,3.5,2.167,3.5
				c-2.084,0-5-1.833-5.834-0.583c-0.833,1.25-1.166,10.5,0.167,11.917c1.333,1.416,13,4.416,13.083,5.916
				c0.084,1.5-9.083,0.5-9.916,0.167c-0.834-0.333,0.5,7.75,3.083,8.583c2.583,0.834,11.667-0.333,13.25,1.584
				c1.583,1.916-1.083,2.083-5.5,1.916c-4.417-0.166-7.667-0.416-7.5,0.584s1.583,13.083,11.417,15.833
				c9.833,2.75,14.916-3.667,15.916-7.167C425.083,300.583,437.833,300.417,437,288.667 M404.158,255.369
				c-0.535,0.259-1.33-0.28-1.775-1.202c-0.445-0.923-0.281-2.209,0.254-2.468c0.535-0.258,1.24,0.609,1.686,1.532
				C404.768,254.153,404.694,255.11,404.158,255.369 M411.367,278.385c-0.28,0.61-1.636,0.585-3.028-0.055
				c-1.392-0.641-2.749-1.585-2.469-2.194c0.28-0.609,2.092-0.653,3.484-0.014C410.746,276.763,411.647,277.775,411.367,278.385
				 M416.162,300.942c-1.773-0.041-3.636-0.954-3.619-1.687c0.017-0.732,1.907-1.008,3.68-0.967c1.773,0.041,3.197,0.668,3.181,1.4
				C419.387,300.422,417.935,300.983,416.162,300.942 M432.869,290.585c-0.538,1.572-1.629,2.622-2.438,2.346
				c-0.807-0.276-1.025-1.774-0.486-3.347c0.538-1.571,1.46-3.121,2.267-2.845C433.02,287.016,433.407,289.014,432.869,290.585"/>
			<path style="fill:#313A4C;" d="M430.14,331.97c-0.097-4.254-0.401-9.836-1.482-17.063c-0.235-1.812-0.633-3.663-0.958-5.576
				c-0.431-1.893-0.78-3.854-1.313-5.81c-0.252-0.981-0.506-1.971-0.761-2.966c-0.303-0.984-0.608-1.975-0.914-2.971l-0.464-1.495
				l-0.373-1.019c0.343-0.518,0.868-1.506,1.574-3.413c0.743-2.002,1.455-4.662,1.761-6.85c0.329-2.185,0.304-3.861,0.165-3.87
				c-0.164-0.014-0.413,1.621-0.928,3.722c-0.495,2.105-1.306,4.663-2.03,6.62c-0.435,1.172-0.757,2.002-0.979,2.605
				c-0.276-0.74-0.551-1.48-0.826-2.223c-1.354-3.328-2.888-6.581-4.518-9.714c0.209-0.452,0.494-1.333,0.688-3.014
				c0.212-1.714,0.207-3.926,0.048-5.686c-0.157-1.763-0.437-3.074-0.579-3.06c-0.159,0.016-0.155,1.345-0.197,3.084
				c-0.042,1.739-0.158,3.885-0.364,5.536c-0.093,0.808-0.179,1.424-0.243,1.897c-2.003-3.75-4.137-7.306-6.278-10.556
				c-1.036-1.593-2.067-3.118-3.076-4.568c0.107-0.391,0.198-1.133,0.234-2.528c0.023-1.417-0.094-3.236-0.323-4.681
				c-0.22-1.447-0.521-2.517-0.627-2.497c-0.118,0.021-0.022,1.115,0.047,2.555c0.078,1.439,0.102,3.224,0.079,4.611
				c-0.02,0.717-0.028,1.256-0.027,1.665c-2.759-3.919-5.328-7.27-7.336-9.878c-1.434-1.856-2.586-3.353-3.397-4.403
				c-0.38-0.507-0.68-0.905-0.898-1.196c-0.209-0.27-0.326-0.406-0.342-0.395c-0.016,0.01,0.07,0.167,0.249,0.458
				c0.181,0.29,0.448,0.72,0.811,1.262c0.736,1.078,1.839,2.622,3.234,4.531c2.779,3.826,6.711,9.14,10.718,15.485
				c0.485,0.759,0.971,1.534,1.454,2.323c-0.64-0.172-1.656-0.395-3.288-0.72c-2.074-0.438-4.722-1.059-6.794-1.744
				c-2.095-0.636-3.543-1.442-3.635-1.305c-0.041,0.064,0.283,0.336,0.864,0.746c0.597,0.375,1.463,0.855,2.497,1.286
				c2.058,0.893,4.732,1.648,6.839,2.093c2.379,0.474,3.511,0.58,4.052,0.534c1.944,3.225,3.846,6.672,5.605,10.264
				c-0.645-0.034-1.637-0.05-3.17-0.105c-2.06-0.077-4.701-0.304-6.811-0.647c-2.113-0.32-3.701-0.702-3.751-0.546
				c-0.045,0.133,1.478,0.782,3.598,1.309c2.112,0.547,4.81,0.904,6.92,0.982c1.915,0.07,3.007-0.024,3.626-0.138
				c1.121,2.332,2.185,4.712,3.15,7.131c0.424,1.097,0.818,2.2,1.196,3.307c-0.669-0.037-1.814-0.02-3.792-0.044
				c-2.23-0.027-5.093-0.194-7.384-0.498c-2.294-0.281-4.02-0.645-4.064-0.486c-0.04,0.133,1.631,0.769,3.935,1.254
				c2.299,0.507,5.218,0.802,7.495,0.83c2.246,0.028,3.44-0.119,4.071-0.258c2.148,6.471,3.566,13.024,4.443,18.933
				c1.072,7.168,1.405,12.705,1.556,16.926c0.139,4.224,0.079,7.141,0.043,9.15c-0.1,4.02-0.092,4.416,0.081,4.436
				c0.13,0.018,0.395-0.361,0.696-4.4C430.083,339.163,430.223,336.226,430.14,331.97"/>
			<path style="fill:#2FC1AC;" d="M419,310.751c-3.75-7.001-9.167-8.417-9.167-7.667s-0.416,7.25-1.75,7.167
				c-1.333-0.085,0.084-7.085-1.25-8.085c-1.333-1-8.416-2.5-8.833-1.832c-0.417,0.667,1.75,4.582-0.167,4.832
				c-1.916,0.25-3.25-4.582-4.583-5c-1.333-0.415-14.25,2.75-14.25,2.75s3.5,9.668,4.333,10.335c0.834,0.665,5.5-0.25,6.084,1.583
				c0.583,1.832-3.334,2.082-4.084,2.417c-0.75,0.333,0.75,4.665,4,7.749s7.334,5.084,9.167,3.834s5.333-7.75,6.083-6.918
				c0.75,0.834-1.166,6.668-2.25,7.835c-1.083,1.165-0.5,1.5,1.167,1.833c1.667,0.332,12,1.167,15.25-7.75
				C418.75,323.834,422.75,317.75,419,310.751 M388.214,305.439c-0.344,0.289-0.969,0.11-1.397-0.398
				c-0.428-0.508-0.496-1.154-0.152-1.443c0.343-0.289,0.969-0.111,1.395,0.397C388.488,304.503,388.557,305.149,388.214,305.439
				 M395.771,319.422c-1.203,0.56-2.433,0.47-2.746-0.203c-0.314-0.674,0.584-1.908,1.787-2.468
				c1.203-0.561,2.255-0.236,2.568,0.436C397.694,317.861,396.975,318.861,395.771,319.422 M416.997,317.688
				c-0.657,0-1.19-0.752-1.19-1.681c0-0.928,0.285-1.913,0.942-1.913s1.438,0.985,1.438,1.913
				C418.188,316.936,417.654,317.688,416.997,317.688"/>
			<path style="fill:#27AE60;" d="M467.417,299.833c-1,0.584-3.667,6.334-5.167,5.584s1-5.584,0.083-5.584
				c-0.916,0-8.5,0.75-9.333,2.417s0.167,8.583-0.833,8.333s-2.334-2.333-2.167-4.916c0.167-2.584,0.333-3.084-1.75-1.75
				c-2.083,1.333-13.417,9.583-6.833,19.916c6.583,10.334,16.75,7.584,16.916,7.167c0.167-0.417-4.772-9.063-3.25-9.333
				c1.045-0.186,6.417,7.333,7.167,7.416c0.739,0.082,9.331-0.969,12.53-11.132c0.071-0.227-0.083-0.467-0.319-0.498
				c-0.853-0.111-2.666-0.469-3.294-1.536c-0.834-1.417,0.833-2.417,2.75-1.917c1.916,0.5,3.416,1.25,6.916-11
				C480.833,303,468.417,299.25,467.417,299.833 M444.087,315.943c-0.132,0.841-0.636,1.461-1.125,1.384
				c-0.49-0.076-0.78-0.82-0.649-1.661c0.133-0.842,0.484-1.701,0.975-1.625C443.776,314.118,444.218,315.102,444.087,315.943
				 M467.099,319.235c-0.4,0.655-1.945,0.775-2.954,0.158c-1.007-0.617-1.5-1.648-1.099-2.302c0.4-0.653,1.542-0.684,2.55-0.066
				C466.602,317.643,467.5,318.582,467.099,319.235 M473.332,304.757c-0.242,0.562-0.704,0.902-1.031,0.761
				c-0.327-0.141-0.396-0.711-0.154-1.272c0.244-0.562,0.644-1.097,0.97-0.955C473.443,303.431,473.574,304.194,473.332,304.757"/>
			<path style="fill:#269B92;" d="M467.417,299.833c-1,0.584-3.667,6.334-5.167,5.584s1-5.584,0.083-5.584
				c-0.916,0-8.5,0.75-9.333,2.417s0.167,8.583-0.833,8.333s-2.334-2.333-2.167-4.916c0.167-2.584,0.333-3.084-1.75-1.75
				c-2.083,1.333-13.417,9.583-6.833,19.916c6.583,10.334,16.75,7.584,16.916,7.167c0.167-0.417-4.772-9.063-3.25-9.333
				c1.045-0.186,6.417,7.333,7.167,7.416c0.739,0.082,9.331-0.969,12.53-11.132c0.071-0.227-0.083-0.467-0.319-0.498
				c-0.853-0.111-2.666-0.469-3.294-1.536c-0.834-1.417,0.833-2.417,2.75-1.917c1.916,0.5,3.416,1.25,6.916-11
				C480.833,303,468.417,299.25,467.417,299.833 M444.087,315.943c-0.132,0.841-0.636,1.461-1.125,1.384
				c-0.49-0.076-0.78-0.82-0.649-1.661c0.133-0.842,0.484-1.701,0.975-1.625C443.776,314.118,444.218,315.102,444.087,315.943
				 M467.099,319.235c-0.4,0.655-1.945,0.775-2.954,0.158c-1.007-0.617-1.5-1.648-1.099-2.302c0.4-0.653,1.542-0.684,2.55-0.066
				C466.602,317.643,467.5,318.582,467.099,319.235 M473.332,304.757c-0.242,0.562-0.704,0.902-1.031,0.761
				c-0.327-0.141-0.396-0.711-0.154-1.272c0.244-0.562,0.644-1.097,0.97-0.955C473.443,303.431,473.574,304.194,473.332,304.757"/>
			<path style="fill:#313A4C;" d="M427.878,343.955c-0.162-1.294-0.438-3.172-1.137-5.83c-0.721-2.641-1.826-6.118-4.233-10.214
				c-1.243-2.012-2.732-4.114-4.696-5.893l-0.718-0.69c-0.247-0.224-0.527-0.411-0.79-0.619c-0.396-0.297-0.796-0.599-1.197-0.897
				c-0.017-0.468-0.153-1.347-0.462-3.059c-0.278-1.667-0.541-3.825-0.635-5.579c-0.111-1.751-0.099-3.095-0.26-3.111
				c-0.141-0.016-0.43,1.318-0.519,3.116c-0.105,1.795,0.041,4.034,0.327,5.752c0.172,0.954,0.33,1.644,0.476,2.15
				c-0.915-0.584-1.834-1.171-2.79-1.703c-2.528-1.481-5.181-2.728-7.799-3.829c-0.099-0.319-0.344-0.859-0.672-1.951
				c-0.341-1.15-0.633-2.7-0.809-3.971c-0.184-1.271-0.302-2.252-0.464-2.252c-0.143-0.001-0.3,0.985-0.313,2.305
				c-0.019,1.317,0.158,2.969,0.53,4.228c0.132,0.44,0.27,0.799,0.408,1.094c-1.773-0.716-3.517-1.369-5.18-1.98
				c-1.474-0.538-2.872-1.069-4.193-1.589c-0.126-0.26-0.394-0.658-0.815-1.452c-0.457-0.877-0.949-2.084-1.296-3.093
				c-0.351-1.005-0.609-1.79-0.767-1.764c-0.143,0.023-0.154,0.86,0.012,1.954c0.163,1.092,0.565,2.432,1.076,3.411
				c0.06,0.112,0.115,0.194,0.174,0.293c-0.489-0.2-0.963-0.397-1.421-0.593c-0.057-0.084-0.192-0.161-0.464-0.198
				c-1.289-0.557-2.446-1.092-3.439-1.594c-2.701-1.359-4.26-2.318-4.313-2.231c-0.021,0.032,0.352,0.299,1.052,0.761
				c0.69,0.477,1.74,1.096,3.063,1.85c0.718,0.403,1.534,0.826,2.421,1.26c-0.788,0.123-1.73,0.477-2.423,0.872
				c-0.708,0.402-1.168,0.813-1.112,0.903c0.061,0.103,0.62-0.123,1.351-0.371c0.731-0.25,1.643-0.495,2.36-0.599
				c0.586-0.074,0.936-0.122,1.156-0.171c0.804,0.373,1.651,0.753,2.549,1.14c0.12,0.108,0.23,0.196,0.321,0.247
				c0.186,0.098,0.302,0.094,0.387,0.052c1.09,0.461,2.235,0.927,3.429,1.395c-0.012,0.004-0.021,0.005-0.032,0.009
				c-0.874,0.256-1.873,0.845-2.566,1.428c-0.696,0.586-1.11,1.136-1.017,1.245c0.103,0.122,0.686-0.209,1.446-0.597
				c0.76-0.387,1.708-0.806,2.464-1.026c0.735-0.229,1.125-0.305,1.333-0.417c2.392,0.941,4.903,1.964,7.404,3.134
				c-0.401,0.103-0.881,0.259-1.45,0.494c-0.742,0.326-1.547,0.791-2.295,1.34c-0.732,0.57-1.424,1.199-1.942,1.844
				c-1.065,1.268-1.571,2.413-1.46,2.478c0.145,0.094,0.877-0.881,2.022-1.942c0.56-0.543,1.258-1.067,1.963-1.551
				c0.722-0.463,1.471-0.861,2.148-1.159c1.212-0.501,1.946-0.698,2.367-0.851c1.454,0.716,2.896,1.479,4.296,2.319
				c1.156,0.659,2.261,1.399,3.365,2.113c0.067,0.049,0.13,0.101,0.196,0.15c-0.506,0.117-1.223,0.371-2.21,0.917
				c-0.715,0.403-1.475,0.959-2.178,1.58c-0.691,0.636-1.332,1.333-1.817,2.015c-0.99,1.355-1.457,2.533-1.341,2.596
				c0.147,0.086,0.848-0.936,1.938-2.098c1.077-1.179,2.616-2.403,3.941-3.138c1.324-0.729,2.073-1.003,2.444-1.216
				c0.02-0.011,0.027-0.018,0.045-0.029c0.172,0.133,0.347,0.266,0.52,0.396c0.25,0.199,0.516,0.379,0.75,0.594l0.682,0.664
				c1.868,1.708,3.293,3.735,4.494,5.68c2.329,3.96,3.441,7.345,4.2,9.917c0.737,2.59,1.088,4.421,1.345,5.678
				c0.466,2.525,0.557,2.77,0.724,2.76C427.97,346.827,428.153,346.551,427.878,343.955"/>
			<path style="fill:#313A4C;" d="M477.367,304.304c-0.31,0.203-0.673,0.441-1.091,0.715c-0.448,0.256-0.953,0.544-1.51,0.862
				c-1.46,0.821-3.369,1.723-5.591,2.616c0.53-0.935,0.86-2.237,0.931-3.279c0.077-1.048-0.029-1.834-0.169-1.843
				c-0.162-0.012-0.332,0.749-0.597,1.708c-0.259,0.962-0.68,2.098-1.125,2.879c-0.397,0.68-0.673,1.001-0.819,1.22
				c-0.678,0.252-1.371,0.502-2.093,0.746c-2.257,0.782-4.706,1.575-7.185,2.494c0.108-0.34,0.224-0.781,0.347-1.366
				c0.243-1.213,0.395-2.796,0.385-4.07c-0.003-1.275-0.142-2.234-0.288-2.235c-0.157-0.001-0.295,0.946-0.487,2.177
				c-0.186,1.232-0.454,2.746-0.689,3.917c-0.217,1.025-0.311,1.616-0.33,1.98c-1.438,0.557-2.88,1.157-4.293,1.838
				c-2.077,1.042-4.088,2.224-5.887,3.583c-0.252,0.195-0.49,0.395-0.734,0.594c0.133-0.377,0.262-0.81,0.378-1.318
				c0.434-1.872,0.508-4.306,0.362-6.232c-0.135-1.931-0.438-3.363-0.57-3.351c-0.169,0.015-0.143,1.469-0.208,3.364
				c-0.053,1.896-0.251,4.234-0.657,5.976c-0.396,1.722-0.797,2.541-0.973,2.984c-0.842,0.762-1.631,1.535-2.356,2.311
				c-2.794,2.925-5.776,7.323-6.868,9.427c-1.443,2.782-3.258,8.67-3.571,9.755c-0.585,2.189-0.341,2.475-0.22,2.479
				c0.18,0.021,0.211-0.194,0.958-2.234c0.393-1.011,2.253-6.774,3.713-9.496c1.09-2.033,4.054-6.313,6.785-9.172
				c0.752-0.805,1.573-1.605,2.442-2.391c0.014,0.007,0.02,0.013,0.034,0.02c0.372,0.204,1.135,0.426,2.421,1.219
				c1.302,0.77,2.724,2.161,3.717,3.427c0.993,1.268,1.629,2.345,1.783,2.269c0.117-0.055-0.272-1.268-1.146-2.714
				c-0.869-1.439-2.321-3.054-3.772-3.915c-1.004-0.619-1.756-0.869-2.281-0.973c0.46-0.396,0.93-0.788,1.416-1.171
				c1.729-1.324,3.668-2.489,5.685-3.532c0.032-0.016,0.065-0.028,0.097-0.044c0.041,0.025,0.073,0.05,0.128,0.077
				c0.378,0.206,1.138,0.463,2.505,1.143c1.369,0.678,3,1.802,4.199,2.872c1.208,1.056,2.035,1.983,2.17,1.882
				c0.109-0.078-0.505-1.186-1.624-2.435c-1.103-1.259-2.772-2.569-4.246-3.299c-0.852-0.424-1.484-0.643-1.973-0.768
				c2.456-1.137,4.98-2.104,7.429-2.995c0.007,0.002,0.01,0.005,0.017,0.006c0.241,0.073,0.693,0.095,1.583,0.365
				c0.891,0.276,2.012,0.836,2.896,1.361c0.888,0.518,1.561,0.952,1.669,0.828c0.093-0.104-0.403-0.751-1.217-1.46
				c-0.802-0.713-1.964-1.449-3.017-1.778c-0.018-0.006-0.031-0.007-0.049-0.012c0.6-0.218,1.209-0.438,1.788-0.653
				c0.659-0.241,1.295-0.488,1.919-0.737c0.072,0.024,0.169,0.027,0.309-0.02c0.127-0.044,0.298-0.147,0.485-0.3
				c0.876-0.362,1.708-0.73,2.491-1.097c0.032,0.018,0.072,0.033,0.124,0.045c0.192,0.05,0.548,0.055,1.251,0.192
				c0.702,0.144,1.605,0.447,2.325,0.749c0.721,0.298,1.274,0.547,1.34,0.445c0.059-0.089-0.388-0.516-1.07-0.962
				c-0.678-0.448-1.623-0.876-2.429-1.041c-0.103-0.021-0.186-0.027-0.278-0.039c1.121-0.564,2.114-1.119,2.949-1.646
				c0.542-0.353,1.035-0.674,1.473-0.958c0.397-0.31,0.745-0.579,1.04-0.809c0.563-0.446,0.859-0.703,0.836-0.733
				C478.31,303.72,477.969,303.918,477.367,304.304"/>
			<path style="fill:#313A4C;" d="M404.5,345.75l5.266,35.868c0.421,2.876,2.889,5.007,5.795,5.007h28.129
				c2.906,0,5.373-2.131,5.795-5.007l5.266-35.868H404.5z"/>
			<path style="fill:#39475B;" d="M456.609,335.75h-53.969c-1.01,0-1.795,0.876-1.686,1.879l1.438,13.233
				c0.094,0.86,0.82,1.513,1.687,1.513h51.093c0.865,0,1.592-0.652,1.686-1.513l1.439-13.233
				C458.404,336.626,457.619,335.75,456.609,335.75"/>
		</g>
		<g>
			<path style="fill:#212A38;" d="M89.863,372.279c-0.951-6.001-6.585-10.095-12.585-9.144c-9.474,1.5-19.082,1.5-28.555,0
				c-6.001-0.954-11.635,3.144-12.586,9.144c-0.95,6,3.144,11.635,9.144,12.585c5.879,0.932,11.799,1.396,17.719,1.396
				c5.92,0,11.84-0.465,17.719-1.396C86.719,383.914,90.813,378.279,89.863,372.279"/>
			<path style="fill:#39475B;" d="M63.833,328.833h-1.667c-6.075,0-11-3.843-11-8.583s4.925-8.583,11-8.583h1.667
				c6.075,0,11,3.843,11,8.583S69.909,328.833,63.833,328.833"/>
			<path style="fill:#313A4C;" d="M90.535,351.481c-0.907-5.727-6.281-9.629-12.014-8.729c-10.298,1.634-20.744,1.634-31.043,0
				c-5.725-0.902-11.106,3.002-12.013,8.729c-0.908,5.728,3,11.106,8.727,12.015c6.24,0.988,12.524,1.482,18.808,1.482
				c6.284,0,12.568-0.494,18.807-1.482C87.535,362.588,91.443,357.209,90.535,351.481"/>
			<path style="fill:#354156;" d="M81.631,334.617c-0.82-4.655-5.69-7.835-10.869-7.093c-4.874,0.692-9.816,0.692-14.69,0
				c-5.182-0.737-10.048,2.438-10.869,7.093c-0.821,4.655,2.714,9.025,7.896,9.763c3.424,0.486,6.871,0.73,10.318,0.73
				c3.447,0,6.894-0.244,10.318-0.73C78.917,343.643,82.452,339.272,81.631,334.617"/>
		</g>
	</g>
</g>
</svg>
